<svg width="18" height="18" viewBox="0 0 18 18" fill="none" xmlns="http://www.w3.org/2000/svg"><path fill-rule="evenodd" clip-rule="evenodd" d="M1.297 3h15.635c.305.025.56.153.763.381.203.23.305.496.305.801v10.182c0 .305-.102.572-.305.801a1.181 1.181 0 0 1-.763.344H1.258c0 .025-.012.038-.038.038-.33 0-.623-.115-.877-.344A1.273 1.273 0 0 1 0 14.326V4.182c.025-.33.153-.61.381-.839C.611 3.114.89 3 1.221 3h.076zm5.08 6.075c.153-.178.268-.368.344-.572.102-.229.153-.47.153-.724V7.74c0-.56-.191-1.03-.572-1.411a1.872 1.872 0 0 0-1.373-.572h-.077c-.534 0-.991.19-1.373.572a1.917 1.917 0 0 0-.572 1.41v.039c0 .254.039.495.115.724.102.204.229.394.381.572a1.83 1.83 0 0 0-.8.725 1.815 1.815 0 0 0-.306 1.03v.8c0 .33.115.61.343.84.23.203.496.304.801.304H6.34c.305 0 .572-.101.8-.305.23-.228.344-.508.344-.839v-.8c0-.382-.102-.725-.305-1.03a1.888 1.888 0 0 0-.763-.725h-.038zm8.581-.267H9.467a.474.474 0 0 0-.343.153.412.412 0 0 0-.115.305c0 .127.038.242.115.343a.558.558 0 0 0 .343.115h5.491a.412.412 0 0 0 .305-.115.474.474 0 0 0 .153-.343.362.362 0 0 0-.153-.305.362.362 0 0 0-.305-.153zm-5.491-2.44h5.491c.127 0 .23.05.305.152a.362.362 0 0 1 .153.305c0 .127-.05.242-.153.344a.412.412 0 0 1-.305.114H9.467a.558.558 0 0 1-.343-.114.558.558 0 0 1-.115-.344c0-.127.038-.229.115-.305a.474.474 0 0 1 .343-.152zm5.491 4.881H9.467a.474.474 0 0 0-.343.153.412.412 0 0 0-.115.305c0 .127.038.241.115.343a.558.558 0 0 0 .343.114h5.491a.413.413 0 0 0 .305-.114.474.474 0 0 0 .153-.343.362.362 0 0 0-.153-.305.363.363 0 0 0-.305-.153z" fill="#797E96"/></svg>