<svg width="18" height="18" viewBox="0 0 18 18" fill="none" xmlns="http://www.w3.org/2000/svg"><path d="M9.344 2c1.02.042 1.958.24 2.812.594a7.348 7.348 0 0 1 2.375 1.562A7.006 7.006 0 0 1 16.094 6.5c.354.854.541 1.802.562 2.844-.02 1.041-.208 2-.562 2.875a7.093 7.093 0 0 1-1.563 2.312 7.802 7.802 0 0 1-2.375 1.594c-.854.354-1.791.542-2.812.563-1.042-.021-2-.209-2.875-.563a7.535 7.535 0 0 1-2.313-1.594 7.536 7.536 0 0 1-1.593-2.312c-.355-.875-.542-1.834-.563-2.875.02-1.042.208-1.99.563-2.844a7.427 7.427 0 0 1 1.593-2.344A7.095 7.095 0 0 1 6.47 2.594C7.344 2.24 8.302 2.042 9.344 2zm.344 7.406a2.68 2.68 0 0 1-.344.344c-.125.104-.271.198-.438.281a4.982 4.982 0 0 1-.594.219 3.338 3.338 0 0 1-.656.063.727.727 0 0 0-.375.03.395.395 0 0 0-.218.188c-.063.084-.084.167-.063.25.02.084.063.177.125.281L10 13.25l.188.063a.24.24 0 0 0 .093.03h.094c.083 0 .156-.01.219-.03a.393.393 0 0 0 .156-.094.354.354 0 0 0 .125-.125.591.591 0 0 0 .031-.188c0-.041-.01-.073-.031-.094v-.093l-.063-.063a.364.364 0 0 0-.093-.062L8.656 11.03a3.951 3.951 0 0 0 1.406-.625c.188-.166.344-.333.47-.5.145-.187.26-.396.343-.625h.719a.59.59 0 0 0 .187-.031.396.396 0 0 0 .188-.094.355.355 0 0 0 .125-.125.59.59 0 0 0 .031-.187.348.348 0 0 0-.031-.156.302.302 0 0 0-.125-.157.396.396 0 0 0-.188-.094.59.59 0 0 0-.187-.03h-.781a.695.695 0 0 0-.094-.22 1.645 1.645 0 0 0-.156-.25 1.238 1.238 0 0 0-.157-.187.62.62 0 0 0-.219-.188h1.938c.083 0 .156-.01.219-.03a.393.393 0 0 0 .156-.095.67.67 0 0 0 .125-.156.348.348 0 0 0 .031-.156.348.348 0 0 0-.031-.156.301.301 0 0 0-.125-.157.393.393 0 0 0-.156-.093.694.694 0 0 0-.219-.032H6.531a.59.59 0 0 0-.187.032.788.788 0 0 0-.188.093 1.024 1.024 0 0 0-.125.157.348.348 0 0 0-.031.156c0 .063.01.115.031.156.042.042.084.094.125.157a.788.788 0 0 0 .188.093.59.59 0 0 0 .187.032h1.094c.208 0 .406.02.594.062.208.02.396.073.562.156.188.084.354.177.5.282.146.104.271.218.375.343H7.437a.918.918 0 0 0-.218.031.392.392 0 0 0-.157.094.301.301 0 0 0-.125.156.348.348 0 0 0-.03.157c0 .062.01.125.03.187.021.042.063.084.125.125a.392.392 0 0 0 .157.094c.083.02.156.031.218.031h2.25v.125z" fill="#797E96"/></svg>