<svg width="19" height="19" viewBox="0 0 19 19" fill="none" xmlns="http://www.w3.org/2000/svg"><path fill-rule="evenodd" clip-rule="evenodd" d="M18.083 7.764 10.353.451a.66.66 0 0 0-.342-.19 1.014 1.014 0 0 0-.379-.075c-.151 0-.29.025-.417.075a.892.892 0 0 0-.379.19L1.144 7.764c-.101.102-.19.215-.265.342a.844.844 0 0 0-.076.378c0 .177.025.329.076.455.075.101.164.202.265.303l.303.304c.126.1.253.176.379.227.126.05.253.076.379.076.151 0 .29-.026.417-.076.126-.05.24-.126.34-.227l.077-.038v7.579a1.01 1.01 0 0 0 .303.758c.1.1.214.176.34.227.127.05.266.088.418.114h11.027c.151-.026.29-.064.417-.114.126-.05.24-.127.34-.227.102-.102.178-.215.228-.342.05-.126.076-.265.076-.416v-7.58l.076.039c.1.1.215.176.34.227.127.05.266.076.418.076.151 0 .29-.026.417-.076.126-.05.24-.126.34-.227l.304-.304c.1-.1.177-.202.227-.303a.868.868 0 0 0 .114-.455.614.614 0 0 0-.114-.378 1.009 1.009 0 0 0-.227-.342zm-9.93 2.423a.913.913 0 0 0-.914.913v5.25c0 .504.409.913.913.913h2.968a.913.913 0 0 0 .913-.913V11.1a.913.913 0 0 0-.913-.913H8.152z" fill="#797E96"/></svg>